<?xml version="1.0" encoding="UTF-8"?>
<svg xmlns="http://www.w3.org/2000/svg" viewBox="0 0 469.98 635.95">
  <defs>
    <style>.d{fill:#245696;}</style>
  </defs>
  <g id="a"></g>
  <g id="b">
    <g id="c">
      <g>
        <path class="d" d="M442.98,116.7c-5.1-23.39-4.25-57.85-87.19-93.57-18.71-4.68-59.12-12.77-102.07-19.99-42.96-7.23-78.69,2.55-107.61,12.33-28.93,9.79-50.72,19.36-50.72,19.36-5.1,0-11.16,.96-13.4,2.87-2.23,1.91-59.01,31.9-68.58,108.77C3.83,223.35,.64,276.62,.64,276.62c0,0,4.78,41.15,4.78,69.54s.96,157.27,29.98,199.38c29.03,42.11,52,64.76,111.33,79.11,12.76,2.87,17.23,2.23,35.41,6.06,18.18,3.82,63.8,15.95,193.63-25.84,16.27-7.98,48.49-33.18,65.07-57.42,5.75-16.59,22.12-107.51,23.82-161.52,1.7-54.01,4.67-122.92,4.67-133.12-2.12-9.79-21.26-112.71-26.37-136.1Zm4.25,332.18c-6.38,38.7-19.56,116.54-82.51,147.16-62.95,30.63-237.76,39.98-299.43-28.07C3.61,499.92,18.5,325.11,17.22,294.48c-1.27-30.62,8.08-161.62,22.97-186.72,14.88-25.1,50.18-91.45,193.52-90.17,83.79,0,140.36,27.22,140.36,27.22,0,0,38.7,43.81,46.36,51.47,5.95,14.03,29.35,80.38,29.35,151.84s3.83,162.05-2.55,200.75Z"></path>
        <path class="d" d="M348.98,141.37c24.24,65.5,20.84,209.69,20.84,220.75s-6.38,91.02-6.8,96.97c-.43,5.95-11.49,39.13-19.14,47.21-4.25-15.31-3.83-36.57-1.7-81.23,2.13-44.66-18.71-66.35-25.95-71.03-1.7-8.93-3.83-28.5-.42-78.26,3.4-49.76-21.27-62.95-21.27-62.95-3.82-17.86-2.12-108.88-2.12-108.88,0,0,43.81,8.93,56.57,37.42Z"></path>
        <path class="d" d="M268.17,100.11l9.36,1.28c-1.7,3.82-5.95,17.86-2.97,27.65,2.97,9.78,5.1,29.34,2.12,36.57-2.98,7.23-.42,42.11,2.13,48.49,2.55,6.37,9.78,17.86,16.16,22.96,0,0-2.13,17.86,.42,31.9,2.55,14.04,10.21,74.01,2.98,84.64,6.38,5.52,24.24,15.31,23.39,57.85-.85,42.53,.42,68.05,1.7,72.73,1.27,4.68-2.55,8.51-2.13,14.46,.43,5.95,8.08,24.67-2.12,29.35-10.21,4.68-20.84,4.25-20.84,4.25,0,0-7.65-34.45-6.8-61.67,.85-27.23,.85-88.89,.85-88.89,0,0-15.74-22.97-14.47-57.85,1.28-34.87,5.11-78.68-2.97-94.42-8.08-15.74-12.76-78.26-6.8-129.3Z"></path>
        <path class="d" d="M249.88,97.99s-7.66-2.56-8.93-.43c0,0,1.69,37.85-.43,49.34-2.12,11.48,.85,38.7,.85,51.04s5.53,320.69,6.8,341.95c3.4,0,23.82,1.7,26.38-3.82-.86-7.23-2.56-21.27-2.13-33.18,.43-11.91,4.68-77.83,2.98-92.72-1.71-14.89-.43-27.65-6.81-37.85-6.37-10.21-8.93-45.94-7.23-60.4,1.7-14.46,5.1-58.7,0-76.98-5.53-11.49-11.49-32.33-12.34-48.07-.85-15.73,2.98-79.53,.85-88.89Z"></path>
        <path class="d" d="M215.42,100.11l7.65-.42s4.68,26.37,4.68,44.66v397.68s-9.36-2.55-16.16-2.13c-6.8,.43-14.04,.43-14.04,.43,0,0-.85-56.14-1.7-75.71-.85-19.57,.42-67.2,7.65-94.43,7.23-27.22,5.1-69.75,5.1-83.78s1.7-51.89,8.08-75.71c-.85-19.99-1.28-110.59-1.28-110.59Z"></path>
        <path class="d" d="M198.41,101.81l-9.36,2.55s0,94.42,1.7,108.04c-7.66,12.33-15.31,24.24-16.59,28.5-1.27,4.25-1.27,115.26-3.4,120.79-2.13,5.53-17.86,19.99-20.41,25.52-2.55,5.52-5.95,100.37,.42,139.93,6.38,4.68,17.44,9.79,29.78,8.93,0,0-4.68-150.14-.85-157.37,5.52-6.81,13.18-22.97,12.33-41.68-.85-18.71-2.12-50.19-.85-56.57-1.7-5.1-6.8-19.57,0-39.55,6.8-19.99,7.23-30.2,8.93-37.43,1.7-7.23,.85-13.19-1.28-19.56-2.12-6.38,7.66-59.13-.42-82.09Z"></path>
        <path class="d" d="M174.6,105.64s-2.56,12.33-.85,28.5c1.7,16.16,11.48,79.53-18.29,101.65,0,0,.85,109.31,0,115.26-.85,5.95-19.99,27.65-20.84,39.98-.85,12.34,5.53,39.13,.85,58.7-4.68,19.56-8.51,52.31-1.27,63.8-17.02-7.23-34.88-70.18-36.15-160.35-1.28-90.17,8.51-182.88,19.13-207.13,14.89-22.12,35.73-38.28,57.42-40.41Z"></path>
        <g>
          <path class="d" d="M155.35,86.31l.36,4.14c-2.02,2.94-4.12,5.39-6.3,7.36-2.18,1.97-4.82,3.8-7.91,5.48-9.07,4.93-17.35,6.49-24.87,4.68-7.51-1.82-13.5-6.83-17.97-15.03-4.09-7.51-4.7-14.96-1.84-22.36,2.86-7.4,8.7-13.5,17.54-18.31,3.46-1.89,6.58-3.25,9.34-4.09,2.53-.77,5.53-1.34,8.98-1.68l1.23,.69,1.88,5.44c.64,1.73,1.46,3.77,2.47,6.11l-2.75,1.5-3.61-5.81c-1.95-.93-4.33-1.23-7.15-.9-2.82,.33-5.6,1.24-8.34,2.73-5.51,3-9,7.14-10.48,12.44-1.48,5.3-.67,10.8,2.44,16.52,4.06,7.46,8.99,12.22,14.79,14.28,5.8,2.06,12.05,1.26,18.74-2.38,2.44-1.33,4.43-2.72,5.97-4.17,1.54-1.45,3.59-3.87,6.16-7.24l1.33,.61Z"></path>
          <path class="d" d="M167.2,91.24l-.43-2.06,1.67-1.32c.93-.71,1.44-1.38,1.52-2.02,.08-.64-.14-2.21-.67-4.73l-7.28-34.69c-.68-3.24-1.26-5.15-1.73-5.74-.48-.59-1.6-.75-3.39-.49l-3.16,.42-.67-3.19c2.71-.35,6.13-.94,10.26-1.75,4.13-.81,7.82-1.64,11.08-2.49,4.64-1.19,8.98-2.2,12.99-3.03,4.02-.83,6.61-1.23,7.78-1.21,.14,2.32,.3,4.33,.49,6.02,.16,1.67,.42,3.67,.77,6l-2.8,.59-1.88-5.65c-.2-.55-1.04-.81-2.53-.77-1.49,.04-3.82,.4-6.98,1.06l-3.82,.76-6.47,1.44,4.03,19.19,7.57-1.43c3.65-.77,5.8-1.34,6.45-1.72s.93-1.19,.83-2.44l-.35-3.78,3.07-.64c.59,3.34,1.14,6.21,1.65,8.62,.51,2.41,1.16,5.27,1.97,8.59l-3.07,.64-1.32-4.15c-.44-1.34-1.04-2.06-1.79-2.16-.75-.1-2.97,.24-6.64,1.01-2.28,.48-4.77,1.07-7.46,1.77l4.49,21.37c2.36-.33,4.54-.71,6.54-1.13l1.2-.25c2.72-.57,5.23-1.23,7.54-1.97,2.31-.74,3.77-1.35,4.4-1.84l.34-8.02,3.03-.64c.31,2.64,.61,4.9,.9,6.79,.29,1.91,.69,4.17,1.18,6.77-1.17,.35-3.98,.97-8.43,1.85-4.45,.88-9.31,1.79-14.58,2.74-3.26,.58-6.46,1.22-9.61,1.94-3.15,.72-5.38,1.29-6.69,1.73Z"></path>
          <path class="d" d="M220.53,71.46l1.03-34.28c.1-3.33-.01-5.34-.34-6.01-.32-.67-1.38-1.09-3.18-1.25l-3.17-.33,.1-3.25,12.57,.62,16.75,.26c5.66,.17,9.86,1.29,12.59,3.36,2.73,2.07,4.04,5.13,3.91,9.17-.12,4.18-2.13,7.75-6,10.7-2.03,1.55-4.28,2.69-6.74,3.41l11.91,18.79c2.1,3.29,3.44,5.29,4.03,5.98,.59,.69,1.37,1.13,2.34,1.32l1.58,.33-.1,3.25c-3.01-.25-5.61-.41-7.78-.47-2.17-.06-4.77-.06-7.79,0-.55-1.21-1.12-2.32-1.71-3.33-.59-1.01-2.1-3.51-4.52-7.5l-10.89-17.84,.64-1.49,.95,.07c3.44,.1,6.33-.89,8.67-2.98,2.34-2.09,3.56-4.76,3.66-8.01,.1-3.39-.72-6.02-2.46-7.9-1.75-1.88-4.28-2.87-7.62-2.97-2.01-.11-3.96,.03-5.85,.42l-1.21,40.28c-.1,3.31,.01,5.3,.34,5.99,.32,.68,1.38,1.11,3.18,1.27l3.17,.33-.1,3.25c-4.86-.3-9.07-.51-12.61-.62-3.52-.11-7.71-.15-12.59-.14l.1-3.25,3.18-.14c1.8-.05,2.88-.4,3.25-1.05,.36-.65,.6-2.64,.7-5.98Z"></path>
          <path class="d" d="M281.55,76.8l10.96-33.71c1.02-3.15,1.48-5.09,1.36-5.84-.12-.75-1.02-1.45-2.7-2.11l-2.95-1.21,1.01-3.1c2.18,.9,4.9,1.91,8.16,3.03,3.25,1.11,6.14,2.01,8.64,2.69,1.41,.37,3.64,1.04,6.7,1.99,3.06,.95,6.11,1.92,9.15,2.91,8.31,2.7,13.97,6.73,17,12.08,3.03,5.36,3.32,11.82,.85,19.4-2.95,9.06-8.26,15.3-15.94,18.72-7.68,3.42-16.58,3.48-26.7,.19-2.32-.75-4.56-1.5-6.72-2.25-2.17-.75-3.66-1.3-4.49-1.65-1.6-.66-3.49-1.32-5.68-1.99-2.19-.67-4.07-1.15-5.65-1.44l.65-2,2.14-.3c1.21-.13,2.01-.46,2.4-.97,.39-.51,.98-1.99,1.78-4.43Zm9.44,7.83c2.2,1.02,4.57,1.96,7.1,2.81,7.53,2.45,13.67,2.32,18.45-.37,4.77-2.69,8.47-8.13,11.11-16.32,2.37-7.19,2.22-13.08-.43-17.67-2.65-4.59-8-8.19-16.02-10.8-2-.7-3.96-1.27-5.87-1.7l-14.33,44.06Z"></path>
          <path class="d" d="M347.23,102.33l18.59-28.82c1.79-2.78,2.73-4.55,2.8-5.3,.08-.75-.61-1.66-2.07-2.73l-2.54-1.92,1.76-2.74c4.01,2.77,7.5,5.12,10.48,7.04,2.96,1.91,6.53,4.12,10.7,6.62l-1.76,2.74-2.8-1.52c-1.57-.89-2.68-1.14-3.34-.76-.66,.38-1.88,1.96-3.67,4.74l-18.59,28.82c-1.79,2.78-2.73,4.55-2.8,5.3-.08,.75,.61,1.66,2.07,2.73l2.54,1.92-1.76,2.74c-4.01-2.77-7.5-5.12-10.48-7.04-2.96-1.91-6.53-4.12-10.7-6.62l1.76-2.74,2.8,1.52c1.57,.89,2.68,1.13,3.35,.74,.65-.37,1.87-1.94,3.66-4.72Z"></path>
        </g>
        <g>
          <path class="d" d="M42.83,391.94l-1.32-.55c-.58-1.08-.99-2.12-1.24-3.1-.25-.98-.39-2.08-.41-3.29-.06-3.55,.78-6.33,2.53-8.34,1.75-2,4.24-3.04,7.45-3.09,2.94-.05,5.32,.95,7.12,3,1.8,2.05,2.74,4.81,2.8,8.27,.02,1.36-.06,2.53-.24,3.5-.17,.9-.47,1.9-.92,3.01l-.41,.27-1.96-.29c-.63-.08-1.38-.15-2.26-.22l-.02-1.08,2.35-.18c.59-.45,1.06-1.13,1.41-2.04,.35-.91,.51-1.91,.49-2.98-.04-2.16-.75-3.89-2.13-5.18-1.38-1.3-3.19-1.93-5.43-1.89-2.93,.05-5.16,.8-6.72,2.24-1.55,1.44-2.3,3.48-2.26,6.1,.02,.96,.12,1.79,.32,2.49,.2,.7,.61,1.71,1.23,3.03l-.4,.31Z"></path>
          <path class="d" d="M44.66,394.56c.02,.61-.17,1.14-.57,1.58-.41,.44-.91,.67-1.52,.7-.61,.02-1.14-.17-1.58-.57-.44-.41-.67-.91-.7-1.52-.02-.61,.17-1.14,.57-1.58,.41-.44,.91-.67,1.52-.7,.61-.03,1.14,.17,1.58,.57,.44,.41,.67,.91,.7,1.52Z"></path>
          <path class="d" d="M44.52,401.9c-1.15,.08-1.83,.19-2.05,.33-.22,.13-.32,.51-.32,1.13v1.1l-1.12,.08c-.03-1.24-.08-2.31-.15-3.2-.06-.9-.17-1.97-.31-3.21l1.12-.08,.16,1.09c.08,.62,.24,.97,.48,1.08,.24,.1,.93,.11,2.06,.03l11.78-.84c1.14-.08,1.82-.19,2.04-.32,.22-.14,.33-.51,.32-1.13v-1.1l1.12-.08c.02,1.11,.07,2.07,.12,2.87,.06,.8,.15,1.75,.29,2.86-.43,.32-.81,.64-1.13,.94-.32,.3-1.09,1.05-2.31,2.26l-9.63,9.34,10.25-.74c1.14-.08,1.81-.19,2.04-.32,.22-.13,.33-.51,.32-1.13v-1.1l1.12-.08c.03,1.24,.08,2.31,.15,3.2,.06,.9,.17,1.97,.31,3.21l-1.12,.08-.16-1.08c-.08-.62-.24-.97-.48-1.08-.24-.1-.93-.11-2.06-.03l-12.45,.89c-.76,.05-1.45,.12-2.07,.18-.62,.07-.99,.12-1.13,.16l-.15-.18,.2-2.37,13.99-13.53-11.24,.81Z"></path>
          <path class="d" d="M46.69,422.47c.07,.61-.09,1.14-.47,1.61-.38,.47-.87,.73-1.48,.8-.61,.07-1.14-.09-1.61-.47-.47-.38-.73-.87-.8-1.47-.07-.61,.09-1.14,.47-1.61,.38-.47,.87-.73,1.48-.8,.61-.07,1.14,.09,1.61,.47,.47,.38,.73,.87,.8,1.47Z"></path>
          <path class="d" d="M46.85,428.36l11.69-1.68c1.14-.16,1.81-.32,2.02-.47,.21-.15,.29-.53,.24-1.15l-.07-1.09,1.11-.16,.53,4.3,.9,5.7c.28,1.93,.15,3.42-.39,4.47-.54,1.05-1.5,1.67-2.88,1.87-1.43,.2-2.75-.26-3.99-1.4-.65-.6-1.17-1.29-1.56-2.08l-5.67,5.15c-.99,.91-1.59,1.48-1.79,1.72-.2,.24-.3,.53-.31,.87l-.02,.55-1.11,.16c-.09-1.04-.19-1.93-.3-2.67-.11-.74-.26-1.62-.46-2.64,.38-.26,.72-.52,1.03-.78,.31-.26,1.07-.92,2.28-1.98l5.41-4.75,.54,.13,.03,.33c.17,1.17,.68,2.09,1.52,2.76,.85,.67,1.83,.93,2.93,.77,1.15-.17,2-.6,2.53-1.3,.53-.7,.72-1.62,.56-2.76-.08-.69-.24-1.34-.49-1.96l-13.74,1.97c-1.13,.16-1.8,.32-2.01,.47-.21,.15-.29,.54-.24,1.15l.07,1.09-1.11,.16c-.18-1.67-.36-3.11-.54-4.31-.17-1.2-.4-2.63-.7-4.28l1.11-.16,.24,1.07c.12,.61,.31,.96,.55,1.04,.24,.09,.93,.05,2.07-.12Z"></path>
          <path class="d" d="M50.27,447.26c.11,.6,0,1.15-.34,1.64-.34,.49-.81,.8-1.41,.91-.6,.11-1.15,0-1.64-.34-.49-.34-.8-.81-.91-1.41-.11-.6,0-1.15,.34-1.64,.34-.49,.81-.8,1.41-.91,.6-.11,1.15,0,1.64,.34,.49,.34,.8,.81,.91,1.41Z"></path>
          <path class="d" d="M63.35,460.15l2.16-.67c.4-.44,.66-1.02,.79-1.75,.13-.73,.11-1.48-.06-2.24-.26-1.16-.75-2.01-1.47-2.55-.72-.55-1.56-.71-2.52-.5-.8,.18-1.36,.65-1.68,1.39-.32,.74-.5,2.01-.55,3.81-.06,2.24-.37,3.86-.93,4.85-.55,.98-1.52,1.63-2.9,1.95-2.05,.47-3.82,.1-5.31-1.09-1.49-1.19-2.53-3.07-3.11-5.65-.22-.95-.32-1.94-.31-2.96,.01-1.02,.13-1.96,.36-2.82,.94-.03,1.74-.08,2.41-.17,.67-.09,1.46-.24,2.38-.46l.24,1.05-2.34,.73c-.54,.52-.9,1.24-1.1,2.16-.2,.91-.19,1.85,.02,2.8,.29,1.26,.83,2.19,1.62,2.79,.79,.59,1.73,.77,2.8,.53,.83-.19,1.4-.61,1.73-1.28,.32-.65,.5-1.76,.54-3.32,.07-2.45,.38-4.2,.93-5.27,.54-1.07,1.49-1.75,2.83-2.06,1.91-.43,3.55-.14,4.92,.88,1.37,1.02,2.3,2.64,2.81,4.87,.24,1.08,.38,2.01,.41,2.79,.02,.7-.03,1.51-.15,2.43l-.38,.32c-.7,.02-1.3,.06-1.81,.12-.59,.07-1.29,.19-2.1,.37l-.24-1.05Z"></path>
          <path class="d" d="M55.15,468.69c.16,.59,.09,1.14-.2,1.67-.3,.52-.74,.86-1.33,1.02-.59,.16-1.14,.09-1.66-.2-.52-.3-.86-.74-1.02-1.33-.16-.59-.09-1.14,.2-1.67s.74-.86,1.33-1.02c.59-.16,1.14-.09,1.66,.2,.52,.3,.86,.74,1.02,1.33Z"></path>
          <path class="d" d="M65.36,485.76l2.72,6.86-3.23,.16-2.73-6.86,3.23-.17Z"></path>
          <path class="d" d="M83.42,522.81c-2.26,1.45-4.29,1.97-6.07,1.58-1.78-.4-3.39-1.73-4.83-4-1.35-2.13-1.98-4.04-1.89-5.73,.1-1.69,.91-3.02,2.45-4l8.6-5.46c.96-.61,1.51-1.03,1.64-1.25,.13-.22,.05-.61-.25-1.15l-.52-.97,.95-.6c.85,1.44,1.61,2.68,2.26,3.71,.65,1.02,1.45,2.23,2.39,3.61l-.95,.6-.66-.88c-.36-.5-.67-.74-.93-.72s-.87,.34-1.83,.95l-6.51,4.13c-1.89,1.2-3.01,2.33-3.34,3.39s.01,2.39,1.03,4c1.03,1.62,2.12,2.51,3.28,2.7,1.16,.18,2.66-.31,4.5-1.48l6.51-4.13c.96-.61,1.51-1.03,1.64-1.25,.13-.22,.05-.61-.25-1.15l-.52-.97,.95-.6c.62,1.08,1.17,1.99,1.65,2.75,.48,.76,1.08,1.65,1.8,2.68l-.95,.6-.66-.88c-.36-.5-.67-.74-.93-.72s-.87,.34-1.83,.95l-6.73,4.27Z"></path>
          <path class="d" d="M85.02,531.14c-.86,.76-1.34,1.26-1.43,1.5-.09,.24,.05,.6,.44,1.09l.66,.87-.84,.75c-.78-.96-1.47-1.78-2.06-2.45-.6-.67-1.33-1.46-2.2-2.36l.84-.75,.79,.76c.44,.44,.78,.63,1.04,.56,.25-.07,.8-.48,1.66-1.23l8.83-7.84c.85-.76,1.33-1.26,1.42-1.5s-.05-.61-.43-1.1l-.66-.87,.84-.75c.7,.87,1.31,1.6,1.84,2.2,.53,.6,1.19,1.3,1.97,2.09-.15,.52-.26,1-.33,1.43-.07,.43-.22,1.5-.46,3.2l-1.95,13.27,7.68-6.82c.85-.76,1.32-1.25,1.42-1.5,.1-.24-.05-.61-.43-1.1l-.66-.87,.84-.74c.78,.96,1.47,1.78,2.06,2.45,.6,.67,1.33,1.46,2.2,2.36l-.84,.74-.79-.76c-.44-.44-.78-.63-1.04-.56-.25,.07-.8,.48-1.66,1.23l-9.33,8.29c-.57,.51-1.08,.98-1.53,1.41-.45,.43-.71,.7-.8,.81l-.23-.05-1.29-2,2.86-19.25-8.42,7.48Z"></path>
          <path class="d" d="M99.82,546.62l7.79-8.88c.75-.86,1.16-1.41,1.22-1.66,.06-.25-.12-.6-.57-1.03l-.77-.78,.74-.84c1.22,1.15,2.3,2.12,3.21,2.93,.91,.8,2.02,1.73,3.31,2.8l-.74,.84-.88-.66c-.49-.38-.86-.52-1.1-.43-.24,.1-.74,.57-1.49,1.43l-7.79,8.88c-.75,.86-1.16,1.41-1.22,1.66-.06,.25,.12,.6,.57,1.03l.77,.78-.74,.84c-1.23-1.15-2.3-2.12-3.21-2.93-.91-.8-2.02-1.73-3.31-2.8l.74-.84,.88,.66c.49,.38,.86,.52,1.1,.42,.24-.09,.73-.57,1.49-1.42Z"></path>
          <path class="d" d="M114.61,543.86c.26-1.21,.37-1.96,.34-2.26-.03-.3-.25-.62-.68-.96l-.74-.61,.64-.92c1.39,1.03,2.61,1.9,3.64,2.61,1.03,.71,2.27,1.53,3.72,2.47l-.64,.92-.96-.6c-.47-.29-.81-.31-1.04-.06-.23,.25-.45,.88-.67,1.9l-2.55,11.28h0l9-5.89c1.17-.73,1.86-1.29,2.06-1.68,.2-.38,.03-.79-.52-1.21l-.89-.68,.64-.92c.98,.74,1.84,1.37,2.57,1.88,.73,.51,1.63,1.09,2.68,1.75l-.64,.92-.7-.38c-.4-.23-.73-.3-1.02-.21-.28,.09-.94,.47-1.98,1.13l-11.39,7.34c-.51,.32-1.02,.64-1.53,.99-.51,.34-.89,.61-1.13,.8l-.88-.61-.89-.61c.09-.3,.2-.76,.35-1.36,.14-.6,.27-1.19,.38-1.76l2.82-13.25Z"></path>
          <path class="d" d="M122.85,567.8l.33-.64h.73c.4,.02,.69-.05,.85-.2,.16-.15,.44-.62,.85-1.41l5.58-10.86c.52-1.01,.78-1.65,.78-1.91,0-.26-.27-.55-.8-.87l-.94-.57,.51-1c.8,.5,1.84,1.08,3.12,1.76,1.28,.68,2.45,1.26,3.5,1.74,1.5,.69,2.88,1.36,4.13,2.01,1.25,.65,2.03,1.11,2.34,1.37-.47,.65-.86,1.22-1.18,1.72-.32,.48-.69,1.07-1.1,1.77l-.87-.45,.73-1.92c.07-.19-.1-.44-.51-.75s-1.11-.72-2.1-1.23l-1.19-.62-2.04-1.02-3.09,6.01,2.33,1.26c1.14,.59,1.84,.9,2.1,.94,.26,.04,.51-.12,.75-.47l.73-1.09,.96,.49c-.57,1.02-1.04,1.91-1.43,2.66s-.83,1.66-1.34,2.72l-.96-.49,.55-1.39c.17-.46,.17-.78-.01-.97-.18-.19-.84-.58-2-1.17-.71-.37-1.51-.75-2.38-1.15l-3.44,6.69c.7,.42,1.37,.8,1.99,1.12l.38,.19c.85,.44,1.67,.81,2.44,1.11,.78,.3,1.3,.46,1.58,.46l1.83-2.07,.95,.49c-.49,.77-.9,1.44-1.23,2.01-.34,.58-.72,1.26-1.15,2.07-.39-.16-1.27-.61-2.66-1.34-1.38-.73-2.88-1.54-4.49-2.43-1-.55-1.99-1.08-2.99-1.57-1-.49-1.72-.82-2.17-.99Z"></path>
          <path class="d" d="M140.72,572.55l4.24-11.02c.41-1.07,.6-1.74,.58-1.99-.03-.26-.33-.51-.89-.77l-.99-.47,.4-1.05,4.02,1.63,5.41,2c1.82,.7,3.06,1.54,3.71,2.53,.65,.98,.73,2.13,.23,3.43-.52,1.34-1.57,2.28-3.17,2.79-.84,.27-1.7,.39-2.58,.34l1.73,7.46c.31,1.31,.52,2.11,.63,2.4s.32,.52,.61,.7l.48,.29-.4,1.05c-.95-.42-1.78-.77-2.47-1.04-.7-.27-1.54-.56-2.53-.89-.04-.46-.1-.88-.18-1.28-.08-.4-.28-1.38-.61-2.95l-1.51-7.04,.38-.41,.3,.13c1.11,.43,2.16,.43,3.16,.02,1-.41,1.7-1.14,2.1-2.19,.42-1.09,.45-2.04,.1-2.85-.35-.81-1.06-1.42-2.14-1.83-.64-.27-1.29-.44-1.95-.53l-4.98,12.95c-.41,1.06-.6,1.72-.57,1.98,.03,.26,.32,.52,.89,.77l.99,.47-.4,1.05c-1.55-.65-2.89-1.2-4.03-1.64-1.13-.44-2.49-.93-4.07-1.48l.4-1.05,1.05,.32c.59,.19,.98,.2,1.18,.03,.19-.17,.49-.79,.91-1.86Z"></path>
          <path class="d" d="M171.26,571.66l.44-2.22c-.19-.56-.58-1.07-1.16-1.54-.58-.47-1.25-.81-2-1.02-1.14-.32-2.12-.3-2.95,.07-.82,.37-1.37,1.03-1.64,1.97-.22,.79-.08,1.5,.42,2.14,.49,.63,1.52,1.4,3.08,2.31,1.94,1.12,3.21,2.17,3.82,3.14,.6,.96,.71,2.11,.33,3.47-.57,2.03-1.74,3.41-3.49,4.15-1.76,.74-3.91,.75-6.45,.03-.94-.27-1.85-.65-2.75-1.15-.89-.5-1.66-1.05-2.3-1.66,.43-.84,.76-1.57,1.01-2.2,.24-.63,.49-1.4,.74-2.31l1.04,.29-.48,2.41c.2,.72,.66,1.39,1.37,2s1.53,1.05,2.47,1.32c1.25,.35,2.32,.32,3.22-.09s1.5-1.15,1.8-2.21c.23-.82,.13-1.53-.29-2.13-.42-.59-1.31-1.28-2.66-2.06-2.11-1.23-3.51-2.35-4.18-3.34-.68-.99-.83-2.14-.46-3.47,.53-1.89,1.57-3.19,3.12-3.9,1.55-.71,3.42-.76,5.62-.14,1.06,.3,1.94,.63,2.65,.98,.62,.32,1.31,.75,2.06,1.29l.1,.48c-.32,.62-.57,1.17-.76,1.65-.22,.55-.45,1.23-.69,2.02l-1.04-.29Z"></path>
          <path class="d" d="M174.8,583.37l2.55-11.53c.25-1.11,.34-1.8,.27-2.05-.07-.25-.4-.46-.99-.63l-1.05-.32,.24-1.09c1.63,.42,3.03,.76,4.23,1.02,1.18,.26,2.6,.55,4.25,.86l-.24,1.09-1.09-.16c-.61-.1-1-.05-1.17,.15-.17,.2-.37,.86-.62,1.97l-2.55,11.53c-.25,1.11-.34,1.79-.27,2.05,.07,.25,.4,.46,.99,.63l1.05,.32-.24,1.09c-1.63-.42-3.03-.76-4.23-1.02-1.18-.26-2.6-.55-4.25-.86l.24-1.09,1.09,.16c.61,.1,1,.04,1.17-.16,.17-.2,.37-.85,.62-1.96Z"></path>
          <path class="d" d="M188.39,586.1l2.25-13.57-2.75-.46c-1.18-.19-1.89-.27-2.13-.21-.24,.05-.43,.32-.55,.79l-.45,1.81-1.05-.17c.1-.88,.18-1.64,.24-2.29,.06-.65,.12-1.41,.17-2.3l8.73,1.53,8.76,1.37c-.24,.86-.44,1.6-.59,2.23-.15,.63-.32,1.38-.5,2.25l-1.05-.17,.16-1.86c.04-.49-.05-.8-.27-.93-.21-.13-.91-.29-2.09-.48l-2.75-.46-2.25,13.57c-.19,1.12-.23,1.81-.14,2.06,.09,.25,.48,.45,1.15,.6l1.19,.28-.18,1.11c-1.75-.35-3.27-.62-4.55-.84-1.28-.21-2.8-.43-4.56-.67l.18-1.11,1.21,.12c.69,.08,1.12,0,1.29-.2,.16-.2,.34-.87,.52-1.99Z"></path>
          <path class="d" d="M200.29,591.65l.08-.72,.69-.26c.38-.13,.62-.3,.71-.5,.09-.2,.19-.74,.28-1.62l1.3-12.14c.12-1.13,.14-1.82,.04-2.06-.09-.24-.45-.42-1.06-.52l-1.08-.2,.12-1.11c.93,.17,2.11,.35,3.55,.52,1.44,.17,2.74,.29,3.89,.36,1.65,.1,3.17,.23,4.58,.39s2.3,.3,2.68,.43c-.2,.78-.36,1.45-.48,2.03-.12,.56-.25,1.25-.38,2.05l-.98-.11v-2.05c-.02-.2-.27-.38-.76-.52-.49-.14-1.29-.28-2.4-.39l-1.33-.16-2.27-.22-.72,6.71,2.63,.34c1.28,.14,2.04,.18,2.3,.12,.25-.05,.43-.29,.53-.71l.29-1.28,1.07,.12c-.16,1.16-.29,2.16-.38,3-.09,.84-.18,1.85-.27,3.02l-1.07-.12v-1.5c0-.49-.11-.79-.35-.9-.24-.11-1-.24-2.28-.38-.8-.09-1.67-.16-2.63-.21l-.8,7.48c.81,.14,1.56,.25,2.26,.33l.42,.05c.95,.1,1.84,.15,2.68,.16,.83,0,1.38-.04,1.64-.13l.97-2.59,1.06,.11c-.18,.9-.32,1.67-.43,2.32-.11,.66-.22,1.44-.33,2.34-.42,0-1.41-.11-2.96-.29-1.55-.18-3.24-.4-5.07-.65-1.13-.16-2.25-.29-3.35-.39s-1.9-.15-2.38-.14Z"></path>
          <path class="d" d="M249.64,592.06l-.6,1.3c-1.1,.54-2.15,.92-3.14,1.13-.99,.22-2.09,.32-3.3,.3-3.55-.06-6.3-1-8.24-2.83-1.94-1.82-2.88-4.34-2.83-7.56,.05-2.94,1.13-5.28,3.25-7.01,2.11-1.73,4.9-2.57,8.37-2.5,1.36,.02,2.52,.14,3.49,.36,.89,.2,1.88,.54,2.98,1.02l.25,.42-.36,1.95c-.1,.63-.2,1.38-.3,2.25l-1.08-.02-.1-2.35c-.43-.61-1.09-1.1-1.99-1.48-.9-.38-1.89-.58-2.96-.6-2.16-.04-3.91,.61-5.25,1.94-1.34,1.33-2.04,3.12-2.08,5.37-.05,2.92,.62,5.19,2.01,6.79,1.39,1.6,3.39,2.43,6.02,2.47,.96,.02,1.79-.06,2.5-.23,.71-.17,1.73-.55,3.07-1.12l.29,.41Z"></path>
          <path class="d" d="M251.5,594.47l-.02-.72,.65-.35c.36-.19,.57-.4,.64-.61s.09-.75,.06-1.63l-.38-12.2c-.04-1.14-.12-1.82-.24-2.05-.13-.23-.5-.35-1.12-.37l-1.1-.05-.04-1.12c1.68,0,3.13-.02,4.35-.05,1.21-.04,2.65-.11,4.33-.22l.04,1.12-1.09,.12c-.62,.06-.98,.2-1.09,.43-.11,.23-.15,.92-.11,2.07l.43,13.75c.81,.03,1.57,.03,2.28,0h.42c.96-.04,1.85-.11,2.67-.23,.83-.11,1.36-.24,1.6-.37l.59-2.9,1.07-.03c-.05,.94-.09,1.75-.1,2.42-.02,.68-.02,1.48,0,2.42-.96,.1-2.23,.18-3.79,.24s-2.99,.08-4.29,.07c-1.04-.01-2.12,0-3.23,.05-1.11,.05-1.95,.12-2.52,.21Z"></path>
          <path class="d" d="M267.9,593.87l-.06-.72,.62-.38c.35-.21,.55-.42,.6-.63,.05-.22,.04-.76-.04-1.64l-1.09-12.16c-.1-1.13-.22-1.81-.36-2.03-.14-.22-.52-.32-1.14-.3l-1.1,.02-.1-1.12c.94-.01,2.13-.07,3.58-.18s2.74-.25,3.89-.41c1.64-.22,3.16-.39,4.57-.51,1.41-.12,2.31-.16,2.71-.1-.05,.8-.07,1.49-.07,2.08-.01,.58,0,1.27,.02,2.09l-.98,.09-.41-2.01c-.04-.2-.32-.32-.83-.36-.51-.04-1.32-.02-2.43,.08l-1.34,.11-2.27,.23,.61,6.73,2.65-.18c1.28-.12,2.04-.22,2.28-.33,.24-.1,.37-.37,.38-.8l.03-1.31,1.08-.1c.07,1.17,.14,2.17,.22,3.01,.08,.84,.18,1.85,.33,3.02l-1.08,.1-.28-1.47c-.1-.48-.27-.75-.53-.81-.25-.06-1.02-.04-2.31,.08-.8,.07-1.67,.17-2.62,.3l.67,7.49c.82-.02,1.58-.06,2.28-.12l.42-.04c.95-.09,1.84-.21,2.66-.37,.82-.16,1.34-.31,1.58-.45l.44-2.73,1.06-.1c0,.92,.01,1.7,.03,2.36,.02,.67,.07,1.45,.13,2.36-.41,.07-1.4,.17-2.96,.29s-3.26,.24-5.1,.35c-1.14,.07-2.26,.16-3.37,.28-1.11,.12-1.89,.22-2.36,.32Z"></path>
          <path class="d" d="M285.24,588.48l-1.94-11.65c-.19-1.13-.36-1.8-.51-2.01-.15-.2-.54-.28-1.16-.21l-1.09,.1-.18-1.11,4.29-.63,5.68-1.03c1.92-.32,3.42-.22,4.48,.29s1.71,1.46,1.93,2.84c.24,1.42-.2,2.76-1.31,4.02-.58,.66-1.27,1.19-2.05,1.6l5.28,5.55c.93,.97,1.51,1.56,1.76,1.75,.25,.19,.54,.29,.88,.29h.56l.18,1.11c-1.04,.12-1.92,.24-2.66,.36-.74,.12-1.62,.3-2.63,.52-.26-.37-.53-.71-.8-1.01-.27-.3-.94-1.05-2.03-2.23l-4.87-5.3,.12-.55,.33-.04c1.17-.19,2.08-.72,2.73-1.58,.65-.86,.88-1.84,.7-2.95-.19-1.15-.64-1.99-1.36-2.5-.71-.52-1.64-.68-2.77-.5-.69,.1-1.34,.27-1.95,.53l2.28,13.69c.19,1.12,.36,1.79,.51,2,.16,.21,.54,.28,1.16,.22l1.09-.1,.18,1.11c-1.66,.22-3.1,.43-4.3,.63-1.2,.2-2.62,.46-4.26,.79l-.18-1.11,1.07-.26c.61-.14,.95-.33,1.03-.57,.08-.24,.03-.93-.16-2.07Z"></path>
          <path class="d" d="M306.25,584.69c.32,1.09,.57,1.74,.75,1.93,.18,.19,.57,.22,1.18,.08l1.07-.23,.31,1.08c-1.21,.29-2.24,.57-3.09,.82-.87,.25-1.89,.58-3.07,.98l-.31-1.08,1.03-.39c.58-.21,.9-.44,.95-.69,.05-.25-.09-.93-.41-2.03l-3.31-11.34c-.32-1.1-.57-1.75-.75-1.93-.18-.19-.57-.21-1.17-.07l-1.07,.23-.31-1.08c1.28-.32,2.37-.61,3.29-.88,.92-.27,2.01-.62,3.27-1.04,.3,.42,.58,.78,.82,1.07,.24,.29,.83,.95,1.78,1.99l7.39,8.21h.02l1.84-10.91c.26-1.48,.42-2.41,.47-2.78,.05-.37,.09-.77,.1-1.21,1.21-.29,2.24-.57,3.09-.82,.87-.25,1.89-.58,3.07-.98l.31,1.08-1.03,.39c-.58,.21-.9,.44-.95,.7-.05,.26,.09,.93,.41,2.03l3.31,11.34c.32,1.09,.57,1.74,.75,1.92,.18,.19,.57,.22,1.18,.08l1.07-.23,.31,1.08c-1.62,.42-3.02,.8-4.2,1.14-1.16,.34-2.54,.77-4.14,1.29l-.31-1.08,1.03-.38c.58-.21,.9-.44,.95-.7,.05-.26-.09-.93-.41-2.03l-3.24-11.1h0l-2.32,13.74c-.14,.77-.25,1.46-.34,2.07-.09,.61-.14,.97-.14,1.09l-.46,.13-.46,.13c-.08-.13-.33-.42-.74-.89-.41-.47-.86-.98-1.37-1.53l-9.42-10.5h0l3.3,11.29Z"></path>
          <path class="d" d="M332.58,577.81c-2.31-.77-4.12-2.53-5.41-5.28-1.39-2.94-1.62-5.63-.7-8.06,.92-2.43,2.91-4.37,5.96-5.81,2.88-1.36,5.47-1.65,7.78-.87,2.31,.78,4.12,2.54,5.42,5.3,1.38,2.94,1.62,5.62,.69,8.04-.92,2.43-2.91,4.36-5.97,5.8-2.87,1.35-5.46,1.64-7.77,.87Zm10.68-6.16c.39-1.66,.06-3.61-1-5.85-1.25-2.65-2.69-4.45-4.32-5.42-1.63-.97-3.34-1.03-5.14-.18-1.79,.84-2.88,2.1-3.27,3.77-.39,1.67-.06,3.62,1,5.86,1.24,2.64,2.68,4.44,4.32,5.4,1.63,.96,3.34,1.02,5.13,.18,1.8-.85,2.89-2.1,3.28-3.76Z"></path>
          <path class="d" d="M353.64,565.29c.65,.95,1.1,1.48,1.32,1.6,.23,.12,.61,.02,1.14-.3l.95-.55,.64,.92c-1.05,.66-1.94,1.25-2.68,1.75-.74,.51-1.61,1.15-2.61,1.9l-.64-.92,.85-.69c.49-.38,.72-.7,.68-.96-.04-.26-.38-.86-1.02-1.79l-6.72-9.71c-.65-.94-1.09-1.47-1.32-1.59-.23-.12-.61-.02-1.14,.3l-.95,.56-.64-.92c.95-.59,1.75-1.11,2.41-1.57,.66-.46,1.43-1.02,2.31-1.7,.5,.21,.96,.37,1.38,.5,.42,.12,1.46,.4,3.12,.84l12.94,3.54-5.85-8.45c-.65-.94-1.09-1.46-1.32-1.59-.23-.12-.61-.02-1.14,.3l-.95,.55-.64-.92c1.05-.66,1.94-1.25,2.68-1.75,.74-.51,1.61-1.15,2.61-1.9l.64,.92-.85,.69c-.49,.38-.72,.7-.68,.96,.03,.26,.38,.86,1.03,1.79l7.11,10.26c.44,.63,.84,1.19,1.21,1.69,.37,.5,.61,.79,.71,.89l-.08,.22-2.14,1.04-18.77-5.15,6.41,9.26Z"></path>
          <path class="d" d="M373.89,549.65l-9.5-9.94-2.02,1.93c-.86,.82-1.35,1.35-1.45,1.58-.1,.23,0,.53,.3,.92l1.18,1.45-.77,.74c-.64-.61-1.2-1.13-1.69-1.57-.48-.44-1.06-.94-1.74-1.52l6.47-6.07,6.35-6.19c.54,.71,1.01,1.31,1.43,1.81,.41,.5,.91,1.08,1.5,1.75l-.77,.74-1.39-1.24c-.37-.32-.67-.44-.91-.34-.23,.09-.78,.55-1.64,1.38l-2.02,1.93,9.5,9.94c.79,.82,1.31,1.27,1.56,1.35,.26,.08,.65-.11,1.17-.56l.94-.78,.77,.81c-1.33,1.19-2.46,2.24-3.4,3.13-.94,.89-2.03,1.98-3.27,3.24l-.77-.81,.82-.9c.48-.5,.68-.89,.62-1.16-.06-.25-.49-.79-1.28-1.61Z"></path>
          <path class="d" d="M394,526.49l-8.08-11.03c-.34-.49-.7-.98-1.07-1.47-.37-.49-.66-.86-.86-1.09l.54-.88,.54-.87c.27,.06,.71,.14,1.33,.24,.61,.1,1.22,.19,1.84,.27l13.63,1.99c1.23,.18,1.99,.25,2.27,.21,.29-.03,.56-.22,.83-.57l.47-.61,.96,.59c-.91,1.39-1.69,2.59-2.31,3.62-.62,1.02-1.35,2.25-2.17,3.69l-.96-.59,.55-1c.26-.48,.26-.83,0-1.04-.26-.21-.91-.39-1.95-.54l-2.35-.37-3.67,6,.94,1.21c.8,1.11,1.4,1.76,1.8,1.94,.4,.18,.79-.01,1.18-.58l.63-.93,.96,.59c-.69,1.02-1.27,1.91-1.73,2.67-.47,.76-1,1.69-1.6,2.77l-.96-.59,.34-.72c.2-.41,.25-.76,.15-1.03-.1-.27-.52-.9-1.24-1.9Zm-1.46-4.84l3-4.9-7.47-1.16h0l4.47,6.05Z"></path>
          <path class="d" d="M407.66,492.19c2.46,1.09,4.01,2.48,4.67,4.19,.65,1.7,.43,3.78-.67,6.24-1.03,2.31-2.27,3.88-3.73,4.73-1.46,.85-3.02,.9-4.68,.16l-9.3-4.16c-1.04-.46-1.69-.69-1.95-.68-.26,.01-.53,.3-.82,.85l-.52,.96-1.02-.46c.73-1.51,1.35-2.82,1.85-3.94,.49-1.11,1.06-2.44,1.69-3.99l1.02,.46-.37,1.03c-.22,.58-.25,.97-.08,1.18,.16,.2,.77,.54,1.81,1l7.04,3.15c2.05,.92,3.6,1.22,4.67,.91,1.07-.31,1.99-1.33,2.76-3.07,.78-1.75,.93-3.15,.44-4.22-.49-1.07-1.72-2.04-3.71-2.93l-7.04-3.15c-1.04-.46-1.69-.69-1.95-.68-.26,.01-.53,.3-.82,.85l-.52,.96-1.02-.46c.56-1.11,1.02-2.07,1.38-2.89,.37-.82,.78-1.82,1.24-2.98l1.02,.46-.37,1.03c-.22,.58-.25,.97-.08,1.17,.16,.2,.77,.54,1.81,1l7.28,3.25Z"></path>
          <path class="d" d="M402.02,484.47c-1.23,.1-1.99,.21-2.27,.32-.28,.12-.52,.42-.72,.92l-.37,.88-1.07-.34c.58-1.63,1.07-3.04,1.46-4.24,.38-1.19,.82-2.61,1.3-4.28l1.07,.35-.3,1.1c-.14,.53-.06,.87,.24,1.02,.3,.15,.97,.18,2.02,.1l11.54-.8h0l-8.23-6.94c-1.04-.91-1.77-1.41-2.2-1.49-.43-.09-.77,.2-1.01,.84l-.4,1.05-1.07-.34c.43-1.15,.78-2.15,1.06-3,.28-.85,.58-1.87,.91-3.07l1.07,.34-.17,.78c-.11,.45-.08,.79,.09,1.03,.16,.25,.72,.77,1.66,1.57l10.3,8.8c.45,.39,.91,.79,1.39,1.18,.48,.39,.84,.68,1.09,.85l-.33,1.02-.33,1.03c-.32,0-.78,.02-1.4,.06-.62,.04-1.21,.08-1.8,.14l-13.51,1.11Z"></path>
          <path class="d" d="M422.58,470.35l-.7-.17-.17-.71c-.08-.39-.22-.65-.41-.77-.19-.12-.71-.28-1.57-.49l-11.88-2.83c-1.11-.26-1.79-.37-2.04-.3-.25,.06-.47,.39-.65,.98l-.33,1.05-1.09-.26c.29-.9,.61-2.05,.96-3.45,.35-1.41,.64-2.68,.85-3.82,.31-1.62,.63-3.12,.97-4.49,.33-1.37,.59-2.24,.77-2.6,.74,.3,1.39,.54,1.95,.73,.54,.2,1.21,.41,1.98,.64l-.23,.96-2.04-.25c-.2-.02-.41,.21-.61,.68-.21,.47-.44,1.25-.7,2.33l-.32,1.3-.5,2.23,6.57,1.57,.67-2.57c.3-1.25,.44-2,.41-2.26-.02-.26-.24-.46-.64-.62l-1.23-.45,.25-1.05c1.13,.31,2.1,.56,2.93,.75,.83,.2,1.81,.41,2.97,.65l-.25,1.05-1.48-.2c-.48-.06-.79,.02-.94,.24-.14,.22-.36,.96-.66,2.22-.19,.78-.37,1.64-.54,2.58l7.31,1.74c.24-.79,.45-1.52,.61-2.2l.1-.41c.22-.93,.39-1.81,.49-2.64,.11-.83,.13-1.37,.08-1.64l-2.45-1.29,.25-1.04c.87,.29,1.62,.53,2.25,.72,.64,.19,1.4,.4,2.28,.63-.06,.42-.28,1.38-.66,2.9s-.81,3.16-1.29,4.94c-.3,1.1-.57,2.19-.81,3.28-.24,1.09-.39,1.87-.45,2.34Z"></path>
          <path class="d" d="M422.96,452.26l-11.64-2.01c-1.13-.2-1.82-.25-2.06-.18-.25,.08-.44,.42-.58,1.02l-.27,1.06-1.11-.19,.82-4.26,.9-5.7c.33-1.92,.92-3.3,1.75-4.13,.84-.83,1.94-1.13,3.32-.89,1.42,.25,2.54,1.1,3.36,2.56,.43,.77,.71,1.59,.84,2.46l6.98-3.15c1.22-.56,1.97-.92,2.23-1.09,.26-.17,.45-.41,.56-.73l.19-.52,1.1,.19c-.23,1.02-.41,1.89-.54,2.63-.13,.74-.25,1.62-.38,2.66-.44,.13-.84,.27-1.22,.42-.37,.15-1.3,.55-2.78,1.18l-6.61,2.85-.48-.29,.07-.32c.2-1.17,0-2.2-.6-3.1-.6-.9-1.45-1.44-2.56-1.63-1.15-.2-2.09-.05-2.81,.46-.72,.5-1.18,1.32-1.38,2.45-.14,.68-.18,1.35-.14,2.02l13.67,2.36c1.12,.19,1.81,.25,2.06,.17,.25-.08,.44-.42,.59-1.02l.27-1.06,1.11,.19c-.34,1.64-.61,3.07-.82,4.27-.21,1.19-.42,2.62-.66,4.29l-1.1-.19,.11-1.09c.07-.62,0-1-.2-1.16-.2-.16-.87-.33-2-.53Z"></path>
          <path class="d" d="M431.09,424.85c-.36,3.3-1.57,5.84-3.64,7.62-2.06,1.78-4.62,2.5-7.69,2.17-3.05-.34-5.31-1.62-6.78-3.85-1.47-2.23-2-5.19-1.6-8.88,.16-1.43,.39-2.65,.7-3.65,.29-.93,.73-1.98,1.32-3.16l.44-.21,1.9,.53c.62,.16,1.35,.33,2.2,.5l-.12,1.08-2.35-.12c-.66,.43-1.22,1.15-1.69,2.16-.46,1.01-.77,2.17-.91,3.47-.24,2.16,.25,3.96,1.47,5.37,1.22,1.42,2.99,2.25,5.32,2.51,2.82,.31,5.12-.13,6.91-1.32,1.79-1.19,2.81-2.95,3.07-5.28h0c.12-1.21,.03-2.39-.29-3.51l-2.26-.25c-1.14-.12-1.83-.12-2.08,0-.24,.13-.43,.59-.55,1.4l-.24,1.4-1.11-.12c.23-1.57,.4-2.93,.53-4.07,.12-1.14,.25-2.51,.37-4.1l.88,.1,.06,.56c.03,.32,.16,.52,.41,.6,.24,.09,.97,.2,2.17,.33l2.76,.3c.82,2.85,1.09,5.64,.79,8.38h0Z"></path>
          <path class="d" d="M428.44,409.36c1.15,.06,1.84,.04,2.07-.06,.24-.11,.39-.47,.46-1.08l.14-1.09,1.12,.06c-.12,1.24-.21,2.3-.26,3.19-.05,.9-.08,1.98-.1,3.23l-1.12-.06-.02-1.1c0-.62-.12-1-.34-1.13-.22-.13-.91-.23-2.04-.29l-11.79-.66c-1.14-.06-1.83-.04-2.06,.06-.24,.11-.39,.47-.46,1.08l-.14,1.09-1.12-.06c.12-1.11,.2-2.06,.24-2.86,.04-.8,.07-1.76,.08-2.87,.47-.27,.88-.53,1.24-.79,.36-.26,1.22-.91,2.58-1.94l10.74-8.04-10.25-.57c-1.14-.06-1.82-.04-2.06,.06s-.39,.47-.46,1.08l-.14,1.09-1.12-.06c.12-1.23,.21-2.3,.26-3.19,.05-.9,.08-1.98,.1-3.23l1.12,.06,.02,1.1c0,.62,.12,1,.34,1.13,.23,.13,.91,.23,2.04,.29l12.46,.7c.76,.04,1.46,.07,2.08,.08s1,0,1.14-.01l.13,.2-.5,2.33-15.59,11.64,11.25,.63Z"></path>
          <path class="d" d="M433.03,390.74h-.72l-.32-.68c-.17-.37-.35-.59-.56-.67-.21-.08-.75-.12-1.64-.14l-12.21-.24c-1.14-.02-1.83,.02-2.06,.14-.23,.11-.38,.48-.42,1.1l-.1,1.09-1.12-.02c.09-.94,.16-2.13,.21-3.58,.05-1.45,.05-2.75,.02-3.91-.04-1.65-.04-3.18-.01-4.6,.03-1.41,.1-2.31,.2-2.7,.79,.13,1.48,.23,2.06,.3,.57,.08,1.26,.14,2.07,.2l-.02,.98-2.04,.19c-.2,.02-.35,.29-.45,.79-.1,.5-.16,1.31-.18,2.42l-.04,1.34-.02,2.28,6.75,.13,.11-2.65c.03-1.29,0-2.05-.08-2.3-.08-.25-.33-.4-.76-.47l-1.3-.18,.02-1.08c1.17,.06,2.17,.1,3.02,.11,.85,.02,1.86,.02,3.04,0l-.02,1.08-1.49,.12c-.48,.04-.77,.19-.86,.43-.09,.24-.15,1.01-.17,2.31-.02,.8,0,1.68,.02,2.64l7.52,.15c.07-.82,.11-1.58,.13-2.28v-.42c.03-.96,0-1.85-.07-2.68-.07-.83-.16-1.37-.28-1.62l-2.67-.74,.02-1.07c.91,.1,1.69,.17,2.35,.22,.66,.05,1.45,.09,2.36,.13,.03,.42,.02,1.41-.03,2.97-.05,1.56-.12,3.26-.21,5.1-.06,1.14-.09,2.26-.09,3.38,0,1.11,.02,1.91,.06,2.38Z"></path>
        </g>
      </g>
    </g>
  </g>
</svg>
